<svg width="67" height="66" viewBox="0 0 67 66" fill="none" xmlns="http://www.w3.org/2000/svg">
<rect x="0.916504" width="66" height="66" rx="8" fill="#084279"/>
<rect x="1.4165" y="0.5" width="65" height="65" rx="7.5" stroke="#78CDD7" stroke-opacity="0.36"/>
<path d="M34.0962 49.317C39.1051 49.317 43.1464 45.2758 43.1464 40.281C43.1464 35.2721 39.1051 31.2309 34.0962 31.2309C29.1015 31.2309 25.0602 35.2721 25.0602 40.281C25.0602 45.2758 29.1015 49.317 34.0962 49.317ZM31.5205 44.9342C30.9798 45.3326 30.4106 44.92 30.6241 44.2939L31.6486 41.2344L29.0303 39.3703C28.5323 39.0003 28.6888 38.3031 29.3718 38.3031L32.5878 38.3315L33.5697 35.2579C33.7688 34.6318 34.4518 34.6318 34.6511 35.2579L35.633 38.3315L38.8489 38.3031C39.5319 38.3031 39.6742 39.0145 39.1905 39.3561L36.5721 41.2344L37.5967 44.2939C37.8102 44.92 37.2409 45.3326 36.7002 44.9342L34.1104 43.0416L31.5205 44.9342ZM25.4301 33.5076C26.8247 31.743 28.7457 30.4055 30.9513 29.7509L24.5052 18.1678L20.7627 23.874C20.5066 24.2439 20.4924 24.6566 20.72 25.0266L25.4301 33.5076ZM30.9087 24.8985H37.2979L41.638 17.2144H26.5685L30.9087 24.8985ZM37.2551 29.7509C39.4751 30.4055 41.3819 31.743 42.7764 33.5076L47.5007 25.0266C47.7142 24.6566 47.6999 24.2439 47.4439 23.874L43.7013 18.1678L37.2551 29.7509Z" fill="white"/>
</svg>
