<svg width="67" height="66" viewBox="0 0 67 66" fill="none" xmlns="http://www.w3.org/2000/svg">
<rect x="0.635376" width="66" height="66" rx="8" fill="#084279"/>
<rect x="1.13538" y="0.5" width="65" height="65" rx="7.5" stroke="#78CDD7" stroke-opacity="0.36"/>
<g clip-path="url(#clip0_198_313)">
<path d="M22.3087 41.0954L22.7063 42.7042C23.21 44.796 24.3102 45.8686 26.4974 45.8686H40.7733C42.9738 45.8686 44.0607 44.8227 44.5776 42.7042L44.9753 41.0954H22.3087ZM21.8712 39.2585H45.426L47.918 28.9344L46.8311 28.3043L40.7204 32.8093C40.2696 33.1311 39.9648 33.0104 39.7129 32.6484L33.9601 23.8529L33.3239 23.8261L27.518 32.6886C27.2927 33.0372 27.0276 33.1445 26.5769 32.8227L20.5855 28.3981L19.313 28.7333L21.8712 39.2585ZM19.8034 31.616C21.5531 31.616 22.9582 30.1814 22.9582 28.3981C22.9582 26.6551 21.5531 25.2071 19.8034 25.2071C18.0537 25.2071 16.6354 26.6417 16.6354 28.3981C16.6354 30.1814 18.0669 31.616 19.8034 31.616ZM33.642 26.0384C35.3784 26.0384 36.7968 24.6037 36.7968 22.8339C36.7968 21.0909 35.3784 19.6428 33.642 19.6428C31.8791 19.6428 30.474 21.0775 30.474 22.8339C30.474 24.6037 31.8923 26.0384 33.642 26.0384ZM47.4673 31.616C49.2038 31.616 50.6354 30.1814 50.6354 28.3981C50.6354 26.6417 49.2171 25.2071 47.4673 25.2071C45.7309 25.2071 44.3126 26.6551 44.3126 28.3981C44.3126 30.1814 45.7309 31.616 47.4673 31.616Z" fill="white"/>
</g>
<defs>
<clipPath id="clip0_198_313">
<rect width="34" height="34" fill="white" transform="translate(16.6354 16)"/>
</clipPath>
</defs>
</svg>
