<svg width="67" height="66" viewBox="0 0 67 66" fill="none" xmlns="http://www.w3.org/2000/svg">
<rect x="0.916504" width="66" height="66" rx="8" fill="#084279"/>
<rect x="1.4165" y="0.5" width="65" height="65" rx="7.5" stroke="#78CDD7" stroke-opacity="0.36"/>
<path d="M33.4138 47.1587C33.6414 47.1587 33.9972 47.0733 34.353 46.8883C42.4497 42.6478 45.0538 40.5275 45.0538 35.419V24.6897C45.0538 23.224 44.4276 22.7544 43.2324 22.2563C41.5675 21.5733 36.2455 19.638 34.5948 19.0688C34.2106 18.9408 33.8122 18.8696 33.4138 18.8696C33.0153 18.8696 32.6169 18.955 32.2469 19.0688C30.582 19.6096 25.26 21.5875 23.5951 22.2563C22.414 22.7402 21.7737 23.224 21.7737 24.6897V35.419C21.7737 40.5275 24.5201 42.4059 32.4746 46.8883C32.8446 47.0876 33.1861 47.1587 33.4138 47.1587ZM26.9961 33.4837C26.9961 33.313 27.0814 33.0995 27.238 32.9146L35.2779 22.8255C35.8898 22.0571 36.9144 22.5694 36.5444 23.5228L33.8976 30.6378H38.8638C39.248 30.6378 39.5326 30.9081 39.5326 31.2924C39.5326 31.4631 39.4472 31.6766 39.2907 31.8615L31.2508 41.9506C30.6389 42.719 29.6286 42.2066 29.9843 41.2675L32.6453 34.1383H27.6649C27.2949 34.1383 26.9961 33.8679 26.9961 33.4837Z" fill="white"/>
</svg>
