<svg width="67" height="66" viewBox="0 0 67 66" fill="none" xmlns="http://www.w3.org/2000/svg">
<rect x="0.635376" width="66" height="66" rx="8" fill="#084279"/>
<rect x="1.13538" y="0.5" width="65" height="65" rx="7.5" stroke="#78CDD7" stroke-opacity="0.36"/>
<g clip-path="url(#clip0_198_293)">
<path d="M29.4323 41.4617C34.2508 40.1356 36.313 36.3267 34.9545 31.1918L33.1268 24.2122C32.6283 22.3377 31.4164 21.6597 29.5496 22.1582L19.8638 24.7806C17.9872 25.299 17.2933 26.4955 17.7917 28.4099L19.6097 35.3795C20.9487 40.5045 24.6138 42.7779 29.4323 41.4617ZM28.5136 37.8922C26.4708 38.4306 24.4868 37.7227 23.441 36.0276C23.2357 35.7185 23.4117 35.4094 23.8026 35.4394C25.1025 35.549 26.6468 35.3196 27.761 35.0106C28.8556 34.7214 30.2826 34.1431 31.3675 33.3754C31.69 33.1361 32.0126 33.3055 31.993 33.7144C31.9246 35.7086 30.5661 37.3138 28.5136 37.8922ZM23.5876 31.3414C22.8546 31.5507 22.7568 32.0493 22.4441 32.0991C22.2975 32.129 22.1215 31.9595 22.0336 31.6704C21.799 30.8229 22.3268 29.9155 23.1673 29.7061C24.0176 29.4967 24.8875 30.0052 25.1025 30.8229C25.1905 31.1219 25.1123 31.3513 24.9559 31.4111C24.5943 31.5407 24.2522 31.1618 23.5876 31.3414ZM29.5496 29.6962C28.8165 29.9155 28.7188 30.4041 28.406 30.444C28.2595 30.4739 28.0835 30.3044 27.9956 30.0252C27.761 29.1877 28.2888 28.2703 29.1293 28.061C29.9894 27.8316 30.8495 28.3501 31.0645 29.1777C31.1525 29.4868 31.0743 29.7061 30.9179 29.766C30.5661 29.8956 30.2142 29.5067 29.5496 29.6962ZM48.3934 27.363L38.7174 24.7207C36.9972 24.2521 35.7853 24.7706 35.2868 26.326L35.1695 26.7548L36.2446 30.8428C37.3197 34.9209 36.4401 38.3708 33.938 40.6042C34.8958 42.2195 36.5965 43.4259 38.8445 44.0341C43.6434 45.3403 47.289 43.067 48.6378 37.942L50.485 30.9824C50.9737 29.0979 50.27 27.8715 48.3934 27.363ZM38.5415 33.4053C37.8671 33.2358 37.4663 32.5378 37.6521 31.8299C37.8377 31.1419 38.5219 30.7331 39.1963 30.9226C39.8707 31.112 40.2714 31.82 40.0955 32.5079C39.9098 33.1959 39.2256 33.5947 38.5415 33.4053ZM44.2787 34.9707C43.614 34.7912 43.2134 34.0833 43.399 33.3853C43.5749 32.6974 44.2591 32.2986 44.9335 32.488C45.6177 32.6575 46.0086 33.3654 45.8327 34.0634C45.647 34.7514 44.9628 35.1601 44.2787 34.9707ZM40.1639 38.7995C39.1475 38.5103 38.1701 38.5003 36.919 38.7795C36.528 38.8693 36.2935 38.5402 36.4988 38.2112C37.3393 36.8651 39.0399 36.3068 40.6917 36.7754C42.4021 37.2141 43.5652 38.5502 43.6238 40.1455C43.6434 40.5444 43.2817 40.7139 42.9885 40.4447C42.0209 39.5473 41.1902 39.0687 40.1639 38.7995Z" fill="white"/>
</g>
<defs>
<clipPath id="clip0_198_293">
<rect width="34" height="34" fill="white" transform="translate(16.6354 16)"/>
</clipPath>
</defs>
</svg>
